<svg width="190" height="204" viewBox="0 0 190 204" fill="none" xmlns="http://www.w3.org/2000/svg">
<circle cx="108.103" cy="3.27586" r="3.27586" fill="#FFF4F2"/>
<circle cx="108.103" cy="108.104" r="3.27586" fill="#FFF4F2"/>
<circle cx="108.103" cy="55.6897" r="3.27586" fill="#FFF4F2"/>
<circle cx="108.103" cy="160.517" r="3.27586" fill="#FFF4F2"/>
<circle cx="108.103" cy="29.4826" r="3.27586" fill="#FFF4F2"/>
<circle cx="108.103" cy="134.31" r="3.27586" fill="#FFF4F2"/>
<circle cx="108.103" cy="81.8965" r="3.27586" fill="#FFF4F2"/>
<circle cx="108.103" cy="186.724" r="3.27586" fill="#FFF4F2"/>
<circle cx="108.103" cy="16.3794" r="3.27586" fill="#FFF4F2"/>
<circle cx="108.103" cy="121.207" r="3.27586" fill="#FFF4F2"/>
<circle cx="108.103" cy="68.7932" r="3.27586" fill="#FFF4F2"/>
<circle cx="108.103" cy="173.621" r="3.27586" fill="#FFF4F2"/>
<circle cx="108.103" cy="42.5862" r="3.27586" fill="#FFF4F2"/>
<circle cx="108.103" cy="147.414" r="3.27586" fill="#FFF4F2"/>
<circle cx="108.103" cy="95" r="3.27586" fill="#FFF4F2"/>
<circle cx="108.103" cy="199.828" r="3.27586" fill="#FFF4F2"/>
<circle cx="29.4828" cy="3.27586" r="3.27586" fill="#FFF4F2"/>
<circle cx="29.4828" cy="108.104" r="3.27586" fill="#FFF4F2"/>
<circle cx="29.4828" cy="55.6897" r="3.27586" fill="#FFF4F2"/>
<circle cx="29.4828" cy="160.517" r="3.27586" fill="#FFF4F2"/>
<circle cx="29.4828" cy="29.4826" r="3.27586" fill="#FFF4F2"/>
<circle cx="29.4828" cy="134.31" r="3.27586" fill="#FFF4F2"/>
<circle cx="29.4828" cy="81.8965" r="3.27586" fill="#FFF4F2"/>
<circle cx="29.4828" cy="186.724" r="3.27586" fill="#FFF4F2"/>
<circle cx="29.4828" cy="16.3794" r="3.27586" fill="#FFF4F2"/>
<circle cx="29.4828" cy="121.207" r="3.27586" fill="#FFF4F2"/>
<circle cx="29.4828" cy="68.7932" r="3.27586" fill="#FFF4F2"/>
<circle cx="29.4828" cy="173.621" r="3.27586" fill="#FFF4F2"/>
<circle cx="29.4828" cy="42.5862" r="3.27586" fill="#FFF4F2"/>
<circle cx="29.4828" cy="147.414" r="3.27586" fill="#FFF4F2"/>
<circle cx="29.4828" cy="95" r="3.27586" fill="#FFF4F2"/>
<circle cx="29.4828" cy="199.828" r="3.27586" fill="#FFF4F2"/>
<circle cx="186.724" cy="3.27586" r="3.27586" fill="#FFF4F2"/>
<circle cx="186.724" cy="108.104" r="3.27586" fill="#FFF4F2"/>
<circle cx="186.724" cy="55.6897" r="3.27586" fill="#FFF4F2"/>
<circle cx="186.724" cy="160.517" r="3.27586" fill="#FFF4F2"/>
<circle cx="186.724" cy="29.4826" r="3.27586" fill="#FFF4F2"/>
<circle cx="186.724" cy="134.31" r="3.27586" fill="#FFF4F2"/>
<circle cx="186.724" cy="81.8965" r="3.27586" fill="#FFF4F2"/>
<circle cx="186.724" cy="186.724" r="3.27586" fill="#FFF4F2"/>
<circle cx="186.724" cy="16.3794" r="3.27586" fill="#FFF4F2"/>
<circle cx="186.724" cy="121.207" r="3.27586" fill="#FFF4F2"/>
<circle cx="186.724" cy="68.7932" r="3.27586" fill="#FFF4F2"/>
<circle cx="186.724" cy="173.621" r="3.27586" fill="#FFF4F2"/>
<circle cx="186.724" cy="42.5862" r="3.27586" fill="#FFF4F2"/>
<circle cx="186.724" cy="147.414" r="3.27586" fill="#FFF4F2"/>
<circle cx="186.724" cy="95" r="3.27586" fill="#FFF4F2"/>
<circle cx="186.724" cy="199.828" r="3.27586" fill="#FFF4F2"/>
<circle cx="147.414" cy="3.27586" r="3.27586" fill="#FFF4F2"/>
<circle cx="147.414" cy="108.104" r="3.27586" fill="#FFF4F2"/>
<circle cx="147.414" cy="55.6897" r="3.27586" fill="#FFF4F2"/>
<circle cx="147.414" cy="160.517" r="3.27586" fill="#FFF4F2"/>
<circle cx="147.414" cy="29.4826" r="3.27586" fill="#FFF4F2"/>
<circle cx="147.414" cy="134.31" r="3.27586" fill="#FFF4F2"/>
<circle cx="147.414" cy="81.8965" r="3.27586" fill="#FFF4F2"/>
<circle cx="147.414" cy="186.724" r="3.27586" fill="#FFF4F2"/>
<circle cx="147.414" cy="16.3794" r="3.27586" fill="#FFF4F2"/>
<circle cx="147.414" cy="121.207" r="3.27586" fill="#FFF4F2"/>
<circle cx="147.414" cy="68.7932" r="3.27586" fill="#FFF4F2"/>
<circle cx="147.414" cy="173.621" r="3.27586" fill="#FFF4F2"/>
<circle cx="147.414" cy="42.5862" r="3.27586" fill="#FFF4F2"/>
<circle cx="147.414" cy="147.414" r="3.27586" fill="#FFF4F2"/>
<circle cx="147.414" cy="95" r="3.27586" fill="#FFF4F2"/>
<circle cx="147.414" cy="199.828" r="3.27586" fill="#FFF4F2"/>
<circle cx="68.7931" cy="3.27586" r="3.27586" fill="#FFF4F2"/>
<circle cx="68.7931" cy="108.104" r="3.27586" fill="#FFF4F2"/>
<circle cx="68.7931" cy="55.6897" r="3.27586" fill="#FFF4F2"/>
<circle cx="68.7931" cy="160.517" r="3.27586" fill="#FFF4F2"/>
<circle cx="68.7931" cy="29.4826" r="3.27586" fill="#FFF4F2"/>
<circle cx="68.7931" cy="134.31" r="3.27586" fill="#FFF4F2"/>
<circle cx="68.7931" cy="81.8965" r="3.27586" fill="#FFF4F2"/>
<circle cx="68.7931" cy="186.724" r="3.27586" fill="#FFF4F2"/>
<circle cx="68.7931" cy="16.3794" r="3.27586" fill="#FFF4F2"/>
<circle cx="68.7931" cy="121.207" r="3.27586" fill="#FFF4F2"/>
<circle cx="68.7931" cy="68.7932" r="3.27586" fill="#FFF4F2"/>
<circle cx="68.7931" cy="173.621" r="3.27586" fill="#FFF4F2"/>
<circle cx="68.7931" cy="42.5862" r="3.27586" fill="#FFF4F2"/>
<circle cx="68.7931" cy="147.414" r="3.27586" fill="#FFF4F2"/>
<circle cx="68.7931" cy="95" r="3.27586" fill="#FFF4F2"/>
<circle cx="68.7931" cy="199.828" r="3.27586" fill="#FFF4F2"/>
<circle cx="121.207" cy="3.27586" r="3.27586" fill="#FFF4F2"/>
<circle cx="121.207" cy="108.104" r="3.27586" fill="#FFF4F2"/>
<circle cx="121.207" cy="55.6897" r="3.27586" fill="#FFF4F2"/>
<circle cx="121.207" cy="160.517" r="3.27586" fill="#FFF4F2"/>
<circle cx="121.207" cy="29.4826" r="3.27586" fill="#FFF4F2"/>
<circle cx="121.207" cy="134.31" r="3.27586" fill="#FFF4F2"/>
<circle cx="121.207" cy="81.8965" r="3.27586" fill="#FFF4F2"/>
<circle cx="121.207" cy="186.724" r="3.27586" fill="#FFF4F2"/>
<circle cx="121.207" cy="16.3794" r="3.27586" fill="#FFF4F2"/>
<circle cx="121.207" cy="121.207" r="3.27586" fill="#FFF4F2"/>
<circle cx="121.207" cy="68.7932" r="3.27586" fill="#FFF4F2"/>
<circle cx="121.207" cy="173.621" r="3.27586" fill="#FFF4F2"/>
<circle cx="121.207" cy="42.5862" r="3.27586" fill="#FFF4F2"/>
<circle cx="121.207" cy="147.414" r="3.27586" fill="#FFF4F2"/>
<circle cx="121.207" cy="95" r="3.27586" fill="#FFF4F2"/>
<circle cx="121.207" cy="199.828" r="3.27586" fill="#FFF4F2"/>
<circle cx="42.5862" cy="3.27586" r="3.27586" fill="#FFF4F2"/>
<circle cx="42.5862" cy="108.104" r="3.27586" fill="#FFF4F2"/>
<circle cx="42.5862" cy="55.6897" r="3.27586" fill="#FFF4F2"/>
<circle cx="42.5862" cy="160.517" r="3.27586" fill="#FFF4F2"/>
<circle cx="42.5862" cy="29.4826" r="3.27586" fill="#FFF4F2"/>
<circle cx="42.5862" cy="134.31" r="3.27586" fill="#FFF4F2"/>
<circle cx="42.5862" cy="81.8965" r="3.27586" fill="#FFF4F2"/>
<circle cx="42.5862" cy="186.724" r="3.27586" fill="#FFF4F2"/>
<circle cx="42.5862" cy="16.3794" r="3.27586" fill="#FFF4F2"/>
<circle cx="42.5862" cy="121.207" r="3.27586" fill="#FFF4F2"/>
<circle cx="42.5862" cy="68.7932" r="3.27586" fill="#FFF4F2"/>
<circle cx="42.5862" cy="173.621" r="3.27586" fill="#FFF4F2"/>
<circle cx="42.5862" cy="42.5862" r="3.27586" fill="#FFF4F2"/>
<circle cx="42.5862" cy="147.414" r="3.27586" fill="#FFF4F2"/>
<circle cx="42.5862" cy="95" r="3.27586" fill="#FFF4F2"/>
<circle cx="42.5862" cy="199.828" r="3.27586" fill="#FFF4F2"/>
<circle cx="3.27586" cy="3.27586" r="3.27586" fill="#FFF4F2"/>
<circle cx="3.27586" cy="108.104" r="3.27586" fill="#FFF4F2"/>
<circle cx="3.27586" cy="55.6897" r="3.27586" fill="#FFF4F2"/>
<circle cx="3.27586" cy="160.517" r="3.27586" fill="#FFF4F2"/>
<circle cx="3.27586" cy="29.4826" r="3.27586" fill="#FFF4F2"/>
<circle cx="3.27586" cy="134.31" r="3.27586" fill="#FFF4F2"/>
<circle cx="3.27586" cy="81.8965" r="3.27586" fill="#FFF4F2"/>
<circle cx="3.27586" cy="186.724" r="3.27586" fill="#FFF4F2"/>
<circle cx="3.27586" cy="16.3794" r="3.27586" fill="#FFF4F2"/>
<circle cx="3.27586" cy="121.207" r="3.27586" fill="#FFF4F2"/>
<circle cx="3.27586" cy="68.7932" r="3.27586" fill="#FFF4F2"/>
<circle cx="3.27586" cy="173.621" r="3.27586" fill="#FFF4F2"/>
<circle cx="3.27586" cy="42.5862" r="3.27586" fill="#FFF4F2"/>
<circle cx="3.27586" cy="147.414" r="3.27586" fill="#FFF4F2"/>
<circle cx="3.27586" cy="95" r="3.27586" fill="#FFF4F2"/>
<circle cx="3.27586" cy="199.828" r="3.27586" fill="#FFF4F2"/>
<circle cx="160.517" cy="3.27586" r="3.27586" fill="#FFF4F2"/>
<circle cx="160.517" cy="108.104" r="3.27586" fill="#FFF4F2"/>
<circle cx="160.517" cy="55.6897" r="3.27586" fill="#FFF4F2"/>
<circle cx="160.517" cy="160.517" r="3.27586" fill="#FFF4F2"/>
<circle cx="160.517" cy="29.4826" r="3.27586" fill="#FFF4F2"/>
<circle cx="160.517" cy="134.31" r="3.27586" fill="#FFF4F2"/>
<circle cx="160.517" cy="81.8965" r="3.27586" fill="#FFF4F2"/>
<circle cx="160.517" cy="186.724" r="3.27586" fill="#FFF4F2"/>
<circle cx="160.517" cy="16.3794" r="3.27586" fill="#FFF4F2"/>
<circle cx="160.517" cy="121.207" r="3.27586" fill="#FFF4F2"/>
<circle cx="160.517" cy="68.7932" r="3.27586" fill="#FFF4F2"/>
<circle cx="160.517" cy="173.621" r="3.27586" fill="#FFF4F2"/>
<circle cx="160.517" cy="42.5862" r="3.27586" fill="#FFF4F2"/>
<circle cx="160.517" cy="147.414" r="3.27586" fill="#FFF4F2"/>
<circle cx="160.517" cy="95" r="3.27586" fill="#FFF4F2"/>
<circle cx="160.517" cy="199.828" r="3.27586" fill="#FFF4F2"/>
<circle cx="81.8966" cy="3.27586" r="3.27586" fill="#FFF4F2"/>
<circle cx="81.8966" cy="108.104" r="3.27586" fill="#FFF4F2"/>
<circle cx="81.8966" cy="55.6897" r="3.27586" fill="#FFF4F2"/>
<circle cx="81.8966" cy="160.517" r="3.27586" fill="#FFF4F2"/>
<circle cx="81.8966" cy="29.4826" r="3.27586" fill="#FFF4F2"/>
<circle cx="81.8966" cy="134.31" r="3.27586" fill="#FFF4F2"/>
<circle cx="81.8966" cy="81.8965" r="3.27586" fill="#FFF4F2"/>
<circle cx="81.8966" cy="186.724" r="3.27586" fill="#FFF4F2"/>
<circle cx="81.8966" cy="16.3794" r="3.27586" fill="#FFF4F2"/>
<circle cx="81.8966" cy="121.207" r="3.27586" fill="#FFF4F2"/>
<circle cx="81.8966" cy="68.7932" r="3.27586" fill="#FFF4F2"/>
<circle cx="81.8966" cy="173.621" r="3.27586" fill="#FFF4F2"/>
<circle cx="81.8966" cy="42.5862" r="3.27586" fill="#FFF4F2"/>
<circle cx="81.8966" cy="147.414" r="3.27586" fill="#FFF4F2"/>
<circle cx="81.8966" cy="95" r="3.27586" fill="#FFF4F2"/>
<circle cx="81.8966" cy="199.828" r="3.27586" fill="#FFF4F2"/>
<circle cx="134.31" cy="3.27586" r="3.27586" fill="#FFF4F2"/>
<circle cx="134.31" cy="108.104" r="3.27586" fill="#FFF4F2"/>
<circle cx="134.31" cy="55.6897" r="3.27586" fill="#FFF4F2"/>
<circle cx="134.31" cy="160.517" r="3.27586" fill="#FFF4F2"/>
<circle cx="134.31" cy="29.4826" r="3.27586" fill="#FFF4F2"/>
<circle cx="134.31" cy="134.31" r="3.27586" fill="#FFF4F2"/>
<circle cx="134.31" cy="81.8965" r="3.27586" fill="#FFF4F2"/>
<circle cx="134.31" cy="186.724" r="3.27586" fill="#FFF4F2"/>
<circle cx="134.31" cy="16.3794" r="3.27586" fill="#FFF4F2"/>
<circle cx="134.31" cy="121.207" r="3.27586" fill="#FFF4F2"/>
<circle cx="134.31" cy="68.7932" r="3.27586" fill="#FFF4F2"/>
<circle cx="134.31" cy="173.621" r="3.27586" fill="#FFF4F2"/>
<circle cx="134.31" cy="42.5862" r="3.27586" fill="#FFF4F2"/>
<circle cx="134.31" cy="147.414" r="3.27586" fill="#FFF4F2"/>
<circle cx="134.31" cy="95" r="3.27586" fill="#FFF4F2"/>
<circle cx="134.31" cy="199.828" r="3.27586" fill="#FFF4F2"/>
<circle cx="55.6897" cy="3.27586" r="3.27586" fill="#FFF4F2"/>
<circle cx="55.6897" cy="108.104" r="3.27586" fill="#FFF4F2"/>
<circle cx="55.6897" cy="55.6897" r="3.27586" fill="#FFF4F2"/>
<circle cx="55.6897" cy="160.517" r="3.27586" fill="#FFF4F2"/>
<circle cx="55.6897" cy="29.4826" r="3.27586" fill="#FFF4F2"/>
<circle cx="55.6897" cy="134.31" r="3.27586" fill="#FFF4F2"/>
<circle cx="55.6897" cy="81.8965" r="3.27586" fill="#FFF4F2"/>
<circle cx="55.6897" cy="186.724" r="3.27586" fill="#FFF4F2"/>
<circle cx="55.6897" cy="16.3794" r="3.27586" fill="#FFF4F2"/>
<circle cx="55.6897" cy="121.207" r="3.27586" fill="#FFF4F2"/>
<circle cx="55.6897" cy="68.7932" r="3.27586" fill="#FFF4F2"/>
<circle cx="55.6897" cy="173.621" r="3.27586" fill="#FFF4F2"/>
<circle cx="55.6897" cy="42.5862" r="3.27586" fill="#FFF4F2"/>
<circle cx="55.6897" cy="147.414" r="3.27586" fill="#FFF4F2"/>
<circle cx="55.6897" cy="95" r="3.27586" fill="#FFF4F2"/>
<circle cx="55.6897" cy="199.828" r="3.27586" fill="#FFF4F2"/>
<circle cx="16.3793" cy="3.27586" r="3.27586" fill="#FFF4F2"/>
<circle cx="16.3793" cy="108.104" r="3.27586" fill="#FFF4F2"/>
<circle cx="16.3793" cy="55.6897" r="3.27586" fill="#FFF4F2"/>
<circle cx="16.3793" cy="160.517" r="3.27586" fill="#FFF4F2"/>
<circle cx="16.3793" cy="29.4826" r="3.27586" fill="#FFF4F2"/>
<circle cx="16.3793" cy="134.31" r="3.27586" fill="#FFF4F2"/>
<circle cx="16.3793" cy="81.8965" r="3.27586" fill="#FFF4F2"/>
<circle cx="16.3793" cy="186.724" r="3.27586" fill="#FFF4F2"/>
<circle cx="16.3793" cy="16.3794" r="3.27586" fill="#FFF4F2"/>
<circle cx="16.3793" cy="121.207" r="3.27586" fill="#FFF4F2"/>
<circle cx="16.3793" cy="68.7932" r="3.27586" fill="#FFF4F2"/>
<circle cx="16.3793" cy="173.621" r="3.27586" fill="#FFF4F2"/>
<circle cx="16.3793" cy="42.5862" r="3.27586" fill="#FFF4F2"/>
<circle cx="16.3793" cy="147.414" r="3.27586" fill="#FFF4F2"/>
<circle cx="16.3793" cy="95" r="3.27586" fill="#FFF4F2"/>
<circle cx="16.3793" cy="199.828" r="3.27586" fill="#FFF4F2"/>
<circle cx="173.621" cy="3.27586" r="3.27586" fill="#FFF4F2"/>
<circle cx="173.621" cy="108.104" r="3.27586" fill="#FFF4F2"/>
<circle cx="173.621" cy="55.6897" r="3.27586" fill="#FFF4F2"/>
<circle cx="173.621" cy="160.517" r="3.27586" fill="#FFF4F2"/>
<circle cx="173.621" cy="29.4826" r="3.27586" fill="#FFF4F2"/>
<circle cx="173.621" cy="134.31" r="3.27586" fill="#FFF4F2"/>
<circle cx="173.621" cy="81.8965" r="3.27586" fill="#FFF4F2"/>
<circle cx="173.621" cy="186.724" r="3.27586" fill="#FFF4F2"/>
<circle cx="173.621" cy="16.3794" r="3.27586" fill="#FFF4F2"/>
<circle cx="173.621" cy="121.207" r="3.27586" fill="#FFF4F2"/>
<circle cx="173.621" cy="68.7932" r="3.27586" fill="#FFF4F2"/>
<circle cx="173.621" cy="173.621" r="3.27586" fill="#FFF4F2"/>
<circle cx="173.621" cy="42.5862" r="3.27586" fill="#FFF4F2"/>
<circle cx="173.621" cy="147.414" r="3.27586" fill="#FFF4F2"/>
<circle cx="173.621" cy="95" r="3.27586" fill="#FFF4F2"/>
<circle cx="173.621" cy="199.828" r="3.27586" fill="#FFF4F2"/>
<circle cx="95" cy="3.27586" r="3.27586" fill="#FFF4F2"/>
<circle cx="95" cy="108.104" r="3.27586" fill="#FFF4F2"/>
<circle cx="95" cy="55.6897" r="3.27586" fill="#FFF4F2"/>
<circle cx="95" cy="160.517" r="3.27586" fill="#FFF4F2"/>
<circle cx="95" cy="29.4826" r="3.27586" fill="#FFF4F2"/>
<circle cx="95" cy="134.31" r="3.27586" fill="#FFF4F2"/>
<circle cx="95" cy="81.8965" r="3.27586" fill="#FFF4F2"/>
<circle cx="95" cy="186.724" r="3.27586" fill="#FFF4F2"/>
<circle cx="95" cy="16.3794" r="3.27586" fill="#FFF4F2"/>
<circle cx="95" cy="121.207" r="3.27586" fill="#FFF4F2"/>
<circle cx="95" cy="68.7932" r="3.27586" fill="#FFF4F2"/>
<circle cx="95" cy="173.621" r="3.27586" fill="#FFF4F2"/>
<circle cx="95" cy="42.5862" r="3.27586" fill="#FFF4F2"/>
<circle cx="95" cy="147.414" r="3.27586" fill="#FFF4F2"/>
<circle cx="95" cy="95" r="3.27586" fill="#FFF4F2"/>
<circle cx="95" cy="199.828" r="3.27586" fill="#FFF4F2"/>
</svg>
